<?xml version="1.0" encoding="utf-8"?>
<!-- Generator: Adobe Illustrator 25.2.3, SVG Export Plug-In . SVG Version: 6.00 Build 0)  -->
<svg version="1.1" id="Layer_1" xmlns="http://www.w3.org/2000/svg" xmlns:xlink="http://www.w3.org/1999/xlink" x="0px" y="0px"
	 viewBox="0 0 100 125" style="enable-background:new 0 0 100 125;" xml:space="preserve">
<style type="text/css">
	.st0{font-family:'Arial-BoldMT';}
	.st1{font-size:5px;}
</style>
<path d="M-152,54h70c1.1,0,2-0.9,2-2s-0.9-2-2-2h-70c-1.1,0-2,0.9-2,2S-153.1,54-152,54z"/>
<path d="M-152,74h70c1.1,0,2-0.9,2-2s-0.9-2-2-2h-70c-1.1,0-2,0.9-2,2S-153.1,74-152,74z"/>
<path d="M-152,34h70c1.1,0,2-0.9,2-2c0-1.1-0.9-2-2-2h-70c-1.1,0-2,0.9-2,2C-154,33.1-153.1,34-152,34z"/>
<text transform="matrix(1 0 0 1 0 115)" class="st0 st1">Created by André Luiz</text>
<text transform="matrix(1 0 0 1 0 120)" class="st0 st1">from the Noun Project</text>
</svg>
