<?xml version="1.0" encoding="utf-8"?>
<!-- Generator: Adobe Illustrator 25.2.3, SVG Export Plug-In . SVG Version: 6.00 Build 0)  -->
<svg version="1.1" id="Layer_1" xmlns="http://www.w3.org/2000/svg" xmlns:xlink="http://www.w3.org/1999/xlink" x="0px" y="0px"
	 viewBox="0 0 24 24" style="enable-background:new 0 0 24 24;" xml:space="preserve">
<style type="text/css">
	.st0{fill:none;}
</style>
<path class="st0" d="M0,0h24v24H0V0z"/>
<path d="M-58-43.1c0.8,0,1.4-0.4,1.8-1l3.6-6.5c0.4-0.7-0.1-1.5-0.9-1.5h-14.8l-0.9-2h-3.3v2h2l3.6,7.6l-1.4,2.4
	c-0.7,1.3,0.2,3,1.8,3h12v-2h-12l1.1-2H-58z M-67.4-50.1h12.2l-2.8,5h-7L-67.4-50.1z M-66.6-38.1c-1.1,0-2,0.9-2,2c0,1.1,0.9,2,2,2
	c1.1,0,2-0.9,2-2C-64.6-37.2-65.4-38.1-66.6-38.1z M-56.5-38.1c-1.1,0-2,0.9-2,2c0,1.1,0.9,2,2,2s2-0.9,2-2
	C-54.5-37.2-55.4-38.1-56.5-38.1z"/>
</svg>
